<svg width="48" height="48" viewBox="0 0 48 48" fill="none" xmlns="http://www.w3.org/2000/svg">
<path d="M36.8333 2.41666C36.8333 1.95253 36.649 1.50741 36.3208 1.17922C35.9926 0.851031 35.5475 0.666656 35.0833 0.666656C34.6192 0.666656 34.1741 0.851031 33.8459 1.17922C33.5177 1.50741 33.3333 1.95253 33.3333 2.41666V11.785C28.606 8.61632 21.977 9.72932 18.6497 14.62L1.49033 39.834C0.192999 41.7427 0.440332 44.2907 2.08533 45.9193C2.89818 46.7188 3.96435 47.2098 5.10024 47.3077C6.23613 47.4057 7.37062 47.1045 8.30833 46.456L33.485 29.0283C35.7414 27.4781 37.2951 25.1002 37.8084 22.4111C38.3218 19.7221 37.7534 16.9391 36.2267 14.6667H45.581C46.0451 14.6667 46.4902 14.4823 46.8184 14.1541C47.1466 13.8259 47.331 13.3808 47.331 12.9167C47.331 12.4525 47.1466 12.0074 46.8184 11.6792C46.4902 11.351 46.0451 11.1667 45.581 11.1667H39.3043L46.8177 3.65332C47.1268 3.32158 47.2951 2.88281 47.2871 2.42944C47.2791 1.97607 47.0954 1.5435 46.7748 1.22287C46.4542 0.902242 46.0216 0.718581 45.5682 0.710582C45.1148 0.702582 44.6761 0.87087 44.3443 1.17999L36.8333 8.69099V2.41666Z" fill="#F9A221"/>
</svg>
